G04 #@! TF.GenerationSoftware,KiCad,Pcbnew,5.0.2-bee76a0~70~ubuntu18.04.1*
G04 #@! TF.CreationDate,2019-07-08T18:19:28-05:00*
G04 #@! TF.ProjectId,BBB_SHIELD_V2,4242425f-5348-4494-954c-445f56322e6b,rev?*
G04 #@! TF.SameCoordinates,Original*
G04 #@! TF.FileFunction,Legend,Bot*
G04 #@! TF.FilePolarity,Positive*
%FSLAX46Y46*%
G04 Gerber Fmt 4.6, Leading zero omitted, Abs format (unit mm)*
G04 Created by KiCad (PCBNEW 5.0.2-bee76a0~70~ubuntu18.04.1) date Mon 08 Jul 2019 06:19:28 PM CDT*
%MOMM*%
%LPD*%
G01*
G04 APERTURE LIST*
%ADD10C,0.150000*%
%ADD11C,0.100000*%
G04 APERTURE END LIST*
D10*
G04 #@! TO.C,P12V1*
X167370000Y-121140000D02*
X169770000Y-121140000D01*
X167370000Y-123540000D02*
X167370000Y-121140000D01*
X169770000Y-123540000D02*
X167370000Y-123540000D01*
X169770000Y-121140000D02*
X169770000Y-123540000D01*
G04 #@! TO.C,P5V1*
X169770000Y-133740000D02*
X169770000Y-136140000D01*
X169770000Y-136140000D02*
X167370000Y-136140000D01*
X167370000Y-136140000D02*
X167370000Y-133740000D01*
X167370000Y-133740000D02*
X169770000Y-133740000D01*
G04 #@! TO.C,J4*
X138980000Y-72370000D02*
X138980000Y-74970000D01*
X138980000Y-74970000D02*
X136380000Y-74970000D01*
X136380000Y-74970000D02*
X136380000Y-72370000D01*
X136380000Y-72370000D02*
X138980000Y-72370000D01*
G04 #@! TO.C,P12V1*
D11*
X171870000Y-127266190D02*
X171774761Y-127266190D01*
X171727142Y-127290000D01*
X171679523Y-127337619D01*
X171655714Y-127432857D01*
X171655714Y-127599523D01*
X171679523Y-127694761D01*
X171727142Y-127742380D01*
X171774761Y-127766190D01*
X171870000Y-127766190D01*
X171917619Y-127742380D01*
X171965238Y-127694761D01*
X171989047Y-127599523D01*
X171989047Y-127432857D01*
X171965238Y-127337619D01*
X171917619Y-127290000D01*
X171870000Y-127266190D01*
X171441428Y-127266190D02*
X171441428Y-127670952D01*
X171417619Y-127718571D01*
X171393809Y-127742380D01*
X171346190Y-127766190D01*
X171250952Y-127766190D01*
X171203333Y-127742380D01*
X171179523Y-127718571D01*
X171155714Y-127670952D01*
X171155714Y-127266190D01*
X170989047Y-127266190D02*
X170703333Y-127266190D01*
X170846190Y-127766190D02*
X170846190Y-127266190D01*
X171846190Y-124590000D02*
X171893809Y-124566190D01*
X171965238Y-124566190D01*
X172036666Y-124590000D01*
X172084285Y-124637619D01*
X172108095Y-124685238D01*
X172131904Y-124780476D01*
X172131904Y-124851904D01*
X172108095Y-124947142D01*
X172084285Y-124994761D01*
X172036666Y-125042380D01*
X171965238Y-125066190D01*
X171917618Y-125066190D01*
X171846190Y-125042380D01*
X171822380Y-125018571D01*
X171822380Y-124851904D01*
X171917618Y-124851904D01*
X171608095Y-125066190D02*
X171608095Y-124566190D01*
X171322380Y-125066190D01*
X171322380Y-124566190D01*
X171084285Y-125066190D02*
X171084285Y-124566190D01*
X170965238Y-124566190D01*
X170893809Y-124590000D01*
X170846190Y-124637619D01*
X170822380Y-124685238D01*
X170798571Y-124780476D01*
X170798571Y-124851904D01*
X170822380Y-124947142D01*
X170846190Y-124994761D01*
X170893809Y-125042380D01*
X170965238Y-125066190D01*
X171084285Y-125066190D01*
X171679524Y-121866190D02*
X171512857Y-122366190D01*
X171346190Y-121866190D01*
X171179524Y-122366190D02*
X171179524Y-121866190D01*
X170941428Y-122366190D02*
X170941428Y-121866190D01*
X170655714Y-122366190D01*
X170655714Y-121866190D01*
G04 #@! TO.C,P5V1*
X171679524Y-134466190D02*
X171512857Y-134966190D01*
X171346190Y-134466190D01*
X171179524Y-134966190D02*
X171179524Y-134466190D01*
X170941428Y-134966190D02*
X170941428Y-134466190D01*
X170655714Y-134966190D01*
X170655714Y-134466190D01*
X171846190Y-137190000D02*
X171893809Y-137166190D01*
X171965238Y-137166190D01*
X172036666Y-137190000D01*
X172084285Y-137237619D01*
X172108095Y-137285238D01*
X172131904Y-137380476D01*
X172131904Y-137451904D01*
X172108095Y-137547142D01*
X172084285Y-137594761D01*
X172036666Y-137642380D01*
X171965238Y-137666190D01*
X171917618Y-137666190D01*
X171846190Y-137642380D01*
X171822380Y-137618571D01*
X171822380Y-137451904D01*
X171917618Y-137451904D01*
X171608095Y-137666190D02*
X171608095Y-137166190D01*
X171322380Y-137666190D01*
X171322380Y-137166190D01*
X171084285Y-137666190D02*
X171084285Y-137166190D01*
X170965238Y-137166190D01*
X170893809Y-137190000D01*
X170846190Y-137237619D01*
X170822380Y-137285238D01*
X170798571Y-137380476D01*
X170798571Y-137451904D01*
X170822380Y-137547142D01*
X170846190Y-137594761D01*
X170893809Y-137642380D01*
X170965238Y-137666190D01*
X171084285Y-137666190D01*
X171870000Y-139866190D02*
X171774761Y-139866190D01*
X171727142Y-139890000D01*
X171679523Y-139937619D01*
X171655714Y-140032857D01*
X171655714Y-140199523D01*
X171679523Y-140294761D01*
X171727142Y-140342380D01*
X171774761Y-140366190D01*
X171870000Y-140366190D01*
X171917619Y-140342380D01*
X171965238Y-140294761D01*
X171989047Y-140199523D01*
X171989047Y-140032857D01*
X171965238Y-139937619D01*
X171917619Y-139890000D01*
X171870000Y-139866190D01*
X171441428Y-139866190D02*
X171441428Y-140270952D01*
X171417619Y-140318571D01*
X171393809Y-140342380D01*
X171346190Y-140366190D01*
X171250952Y-140366190D01*
X171203333Y-140342380D01*
X171179523Y-140318571D01*
X171155714Y-140270952D01*
X171155714Y-139866190D01*
X170989047Y-139866190D02*
X170703333Y-139866190D01*
X170846190Y-140366190D02*
X170846190Y-139866190D01*
G04 #@! TO.C,J4*
D10*
X129927619Y-76084285D02*
X129880000Y-76131904D01*
X129832380Y-76227142D01*
X129832380Y-76465238D01*
X129880000Y-76560476D01*
X129927619Y-76608095D01*
X130022857Y-76655714D01*
X130118095Y-76655714D01*
X130260952Y-76608095D01*
X130832380Y-76036666D01*
X130832380Y-76655714D01*
X130832380Y-95979523D02*
X130832380Y-95408095D01*
X130832380Y-95693809D02*
X129832380Y-95693809D01*
X129975238Y-95598571D01*
X130070476Y-95503333D01*
X130118095Y-95408095D01*
X129832380Y-96598571D02*
X129832380Y-96693809D01*
X129880000Y-96789047D01*
X129927619Y-96836666D01*
X130022857Y-96884285D01*
X130213333Y-96931904D01*
X130451428Y-96931904D01*
X130641904Y-96884285D01*
X130737142Y-96836666D01*
X130784761Y-96789047D01*
X130832380Y-96693809D01*
X130832380Y-96598571D01*
X130784761Y-96503333D01*
X130737142Y-96455714D01*
X130641904Y-96408095D01*
X130451428Y-96360476D01*
X130213333Y-96360476D01*
X130022857Y-96408095D01*
X129927619Y-96455714D01*
X129880000Y-96503333D01*
X129832380Y-96598571D01*
X139082380Y-92946190D02*
X139082380Y-93041428D01*
X139130000Y-93136666D01*
X139177619Y-93184285D01*
X139272857Y-93231904D01*
X139463333Y-93279523D01*
X139701428Y-93279523D01*
X139891904Y-93231904D01*
X139987142Y-93184285D01*
X140034761Y-93136666D01*
X140082380Y-93041428D01*
X140082380Y-92946190D01*
X140034761Y-92850952D01*
X139987142Y-92803333D01*
X139891904Y-92755714D01*
X139701428Y-92708095D01*
X139463333Y-92708095D01*
X139272857Y-92755714D01*
X139177619Y-92803333D01*
X139130000Y-92850952D01*
X139082380Y-92946190D01*
X140082380Y-93755714D02*
X140082380Y-93946190D01*
X140034761Y-94041428D01*
X139987142Y-94089047D01*
X139844285Y-94184285D01*
X139653809Y-94231904D01*
X139272857Y-94231904D01*
X139177619Y-94184285D01*
X139130000Y-94136666D01*
X139082380Y-94041428D01*
X139082380Y-93850952D01*
X139130000Y-93755714D01*
X139177619Y-93708095D01*
X139272857Y-93660476D01*
X139510952Y-93660476D01*
X139606190Y-93708095D01*
X139653809Y-93755714D01*
X139701428Y-93850952D01*
X139701428Y-94041428D01*
X139653809Y-94136666D01*
X139606190Y-94184285D01*
X139510952Y-94231904D01*
G04 #@! TD*
M02*
