M48
;DRILL file {KiCad 5.0.2-bee76a0~70~ubuntu18.04.1} date Mon 05 Aug 2019 08:33:25 PM CDT
;FORMAT={-:-/ absolute / metric / decimal}
FMAT,2
METRIC,TZ
T1C0.300
T2C0.400
T3C0.500
T4C0.650
T5C0.750
T6C0.800
T7C1.000
T8C1.100
T9C1.300
T10C3.200
%
G90
G05
T1
X123.85Y-138.3
X124.75Y-138.3
X127.875Y-120.825
X127.91Y-138.62
X129.76Y-58.58
X130.31Y-57.35
X131.68Y-138.61
X131.93Y-58.6
X132.275Y-120.8
X133.175Y-123.175
X133.26Y-120.8
X133.87Y-99.56
X133.9Y-102.55
X134.23Y-112.79
X134.234Y-115.57
X134.65Y-133.9
X134.7Y-136.1
X135.13Y-58.59
X135.14Y-54.78
X135.14Y-56.03
X135.14Y-57.32
X135.17Y-52.21
X135.19Y-53.51
X136.8Y-132.6
X136.82Y-127.89
X137.29Y-52.22
X137.33Y-129.42
X137.5Y-123.702
X138.01Y-53.5
X138.08Y-126.68
X138.95Y-133.9
X139.04Y-126.67
X139.29Y-123.702
X139.85Y-121.05
X139.85Y-121.8
X139.85Y-122.55
X140.04Y-87.74
X140.6Y-121.05
X140.6Y-121.8
X140.6Y-122.55
X140.82Y-90.61
X140.92Y-52.27
X140.92Y-58.6
X141.35Y-121.05
X141.35Y-121.8
X141.35Y-122.55
X141.54Y-57.32
X141.55Y-51.01
X142.Y-112.81
X142.2Y-106.45
X142.25Y-109.95
X142.29Y-54.15
X142.69Y-50.99
X142.69Y-52.25
X142.761Y-115.589
X143.17Y-58.48
X143.8Y-121.3
X144.49Y-64.5
X144.85Y-103.56
X145.2Y-134.47
X145.34Y-49.75
X145.4Y-53.55
X145.44Y-54.7
X145.7Y-106.45
X146.55Y-135.62
X146.55Y-140.97
X146.93Y-52.27
X146.93Y-54.7
X146.93Y-61.66
X147.5Y-135.57
X147.89Y-57.35
X147.89Y-58.47
X147.99Y-52.28
X148.17Y-53.54
X148.17Y-54.82
X148.19Y-56.08
X148.2Y-62.96
X149.25Y-134.47
X150.25Y-80.65
X150.4Y-139.4
X150.8Y-63.8
X151.1Y-62.34
X151.12Y-49.75
X151.79Y-80.07
X152.5Y-85.1
X152.5Y-105.93
X153.13Y-87.74
X153.15Y-90.06
X153.18Y-86.8
X153.84Y-103.57
X154.02Y-56.53
X154.81Y-81.44
X154.92Y-94.05
X154.95Y-78.4
X155.2Y-105.95
X155.96Y-59.43
X157.1Y-108.65
X158.09Y-103.57
X158.22Y-81.43
X158.22Y-89.52
X158.47Y-61.66
X159.28Y-108.65
X159.33Y-96.85
X160.88Y-62.34
X160.91Y-67.34
X160.93Y-120.45
X161.07Y-59.4
X161.13Y-56.49
X161.15Y-105.95
X161.2Y-96.85
X161.4Y-77.45
X161.4Y-78.75
X161.4Y-80.05
X161.4Y-81.3
X161.4Y-82.55
X161.4Y-83.8
X161.4Y-85.1
X161.4Y-87.6
X161.4Y-91.45
X161.45Y-94.
X162.26Y-80.68
X163.54Y-52.26
X163.7Y-78.75
X163.7Y-102.55
X164.46Y-73.76
X164.49Y-87.59
X165.06Y-88.95
X165.08Y-103.55
X165.21Y-84.49
X165.95Y-92.8
X166.53Y-54.78
X166.53Y-56.03
X166.53Y-57.31
X166.53Y-58.57
X166.79Y-53.53
X166.99Y-92.
X167.65Y-81.25
X167.65Y-82.5
X167.65Y-83.8
X167.65Y-85.1
X167.65Y-86.35
X167.65Y-92.7
X167.65Y-93.97
X167.7Y-80.05
X167.72Y-88.94
X167.72Y-90.17
X168.28Y-105.88
X168.55Y-54.56
X168.91Y-109.47
X169.46Y-106.18
X169.81Y-53.49
X170.01Y-102.78
X170.47Y-73.75
X170.56Y-99.45
X171.11Y-96.11
X171.84Y-52.28
X171.84Y-57.31
X171.95Y-96.1
X171.95Y-99.45
X171.95Y-102.8
X171.95Y-106.15
X171.95Y-109.55
X172.34Y-70.76
X172.41Y-51.01
X172.41Y-58.57
X173.04Y-54.61
X173.13Y-91.39
X173.96Y-52.29
X173.97Y-49.74
X173.97Y-51.01
X173.97Y-53.51
X174.18Y-73.77
X176.05Y-70.75
X176.75Y-54.82
X178.09Y-54.83
X178.09Y-61.67
X178.11Y-51.
X179.1Y-94.7
X179.36Y-51.
X179.4Y-53.53
X179.4Y-56.08
X179.42Y-54.82
X179.42Y-57.34
X179.42Y-63.01
X179.98Y-63.82
X183.5Y-83.025
X183.525Y-85.675
X186.22Y-92.71
X186.25Y-85.675
X186.275Y-83.025
X186.3Y-79.13
X186.85Y-77.43
X186.85Y-94.7
X187.55Y-84.48
X188.15Y-81.75
T2
X120.93Y-101.01
X121.95Y-127.825
X129.14Y-107.475
X145.275Y-121.175
X145.75Y-130.65
X146.13Y-124.84
X163.73Y-121.17
X170.11Y-141.91
X170.12Y-138.17
T3
X124.1Y-129.1
X124.1Y-130.94
X126.3Y-109.8
X144.225Y-122.325
X156.85Y-88.85
X178.1Y-127.73
X178.15Y-141.71
X135.82Y-102.54
T4
X137.315Y-111.05
X136.8Y-140.7
X136.8Y-141.97
X191.03Y-114.61
X191.03Y-115.88
X137.305Y-107.53
X124.93Y-120.9
X126.2Y-120.9
X130.69Y-110.64
X131.96Y-110.64
T5
X121.5Y-58.09
X121.54Y-52.58
X129.1Y-99.55
X129.3Y-102.55
X131.99Y-50.97
X134.3Y-107.45
X140.15Y-49.8
X140.31Y-124.72
X143.95Y-133.42
X143.95Y-136.33
X143.95Y-139.33
X143.95Y-142.23
X145.8Y-57.33
X149.9Y-142.27
X152.374Y-58.2
X152.63Y-52.46
X153.55Y-92.72
X153.55Y-95.42
X153.55Y-98.13
X153.55Y-100.83
X154.8Y-127.9
X154.8Y-130.7
X154.9Y-133.47
X154.9Y-136.37
X154.9Y-139.47
X154.9Y-142.27
X159.15Y-136.2
X159.16Y-138.61
X159.16Y-141.
X159.18Y-133.77
X159.19Y-128.96
X159.2Y-131.37
X159.21Y-126.62
X159.24Y-124.16
X162.4Y-86.35
X163.37Y-50.94
X167.2Y-78.75
X171.55Y-49.85
X173.44Y-57.37
X174.36Y-75.57
X175.82Y-80.12
X175.82Y-82.82
X175.82Y-85.53
X175.82Y-88.22
X179.4Y-110.95
X179.45Y-104.
X179.45Y-107.45
X179.5Y-97.55
X179.5Y-100.6
X181.14Y-132.72
X181.14Y-135.85
X181.2Y-120.14
X181.2Y-123.23
T6
X129.15Y-104.75
X165.22Y-119.93
X165.29Y-122.67
X165.29Y-134.73
X166.55Y-118.89
X166.55Y-139.95
X147.22Y-123.1
X149.76Y-123.1
X152.3Y-123.1
X184.81Y-138.93
X188.31Y-138.93
X184.81Y-130.25
X188.31Y-130.25
X184.81Y-121.52
X188.31Y-121.52
T7
X107.15Y-116.1
X112.23Y-116.11
X190.18Y-94.61
X190.18Y-97.15
X190.18Y-99.69
X190.18Y-102.23
X190.18Y-104.77
X190.18Y-107.31
X173.01Y-122.68
X173.01Y-125.22
X173.01Y-127.76
X173.01Y-134.75
X173.01Y-137.29
X173.01Y-139.83
X190.18Y-75.4
X190.18Y-77.94
X190.18Y-80.48
X190.18Y-83.02
X190.18Y-85.56
X190.18Y-88.1
X124.06Y-114.27
X124.06Y-116.81
X126.6Y-114.27
X126.6Y-116.81
X129.14Y-114.27
X129.14Y-116.81
X131.68Y-114.27
X131.68Y-116.81
X134.22Y-114.27
X134.22Y-116.81
X136.76Y-114.27
X136.76Y-116.81
X139.3Y-114.27
X139.3Y-116.81
X141.84Y-114.27
X141.84Y-116.81
X144.38Y-114.27
X144.38Y-116.81
X146.92Y-114.27
X146.92Y-116.81
X149.46Y-114.27
X149.46Y-116.81
X152.Y-114.27
X152.Y-116.81
X154.54Y-114.27
X154.54Y-116.81
X157.08Y-114.27
X157.08Y-116.81
X159.62Y-114.27
X159.62Y-116.81
X162.16Y-114.27
X162.16Y-116.81
X164.7Y-114.27
X164.7Y-116.81
X167.24Y-114.27
X167.24Y-116.81
X169.78Y-114.27
X169.78Y-116.81
X172.32Y-114.27
X172.32Y-116.81
X174.86Y-114.27
X174.86Y-116.81
X177.4Y-114.27
X177.4Y-116.81
X179.94Y-114.27
X179.94Y-116.81
X146.96Y-111.095
X149.5Y-111.095
X152.04Y-111.095
X154.58Y-111.095
X157.12Y-111.095
X159.66Y-111.095
X132.68Y-76.17
X132.68Y-81.17
X132.68Y-86.17
X132.68Y-91.17
X132.68Y-96.17
X137.68Y-73.67
X137.68Y-78.67
X137.68Y-83.67
X137.68Y-88.67
X137.68Y-93.67
X124.06Y-66.01
X124.06Y-68.55
X126.6Y-66.01
X126.6Y-68.55
X129.14Y-66.01
X129.14Y-68.55
X131.68Y-66.01
X131.68Y-68.55
X134.22Y-66.01
X134.22Y-68.55
X136.76Y-66.01
X136.76Y-68.55
X139.3Y-66.01
X139.3Y-68.55
X141.84Y-66.01
X141.84Y-68.55
X144.38Y-66.01
X144.38Y-68.55
X146.92Y-66.01
X146.92Y-68.55
X149.46Y-66.01
X149.46Y-68.55
X152.Y-66.01
X152.Y-68.55
X154.54Y-66.01
X154.54Y-68.55
X157.08Y-66.01
X157.08Y-68.55
X159.62Y-66.01
X159.62Y-68.55
X162.16Y-66.01
X162.16Y-68.55
X164.7Y-66.01
X164.7Y-68.55
X167.24Y-66.01
X167.24Y-68.55
X169.78Y-66.01
X169.78Y-68.55
X172.32Y-66.01
X172.32Y-68.55
X174.86Y-66.01
X174.86Y-68.55
X177.4Y-66.01
X177.4Y-68.55
X179.94Y-66.01
X179.94Y-68.55
T8
X119.75Y-122.15
X119.75Y-124.69
X119.75Y-127.23
X120.9Y-106.7
X123.44Y-106.7
X125.98Y-106.7
X144.85Y-75.75
X144.85Y-82.25
X149.35Y-75.75
X149.35Y-82.25
X144.85Y-89.1
X144.85Y-95.6
X149.35Y-89.1
X149.35Y-95.6
T9
X112.5Y-126.22
X112.5Y-131.3
X112.5Y-136.38
X112.5Y-141.46
X112.49Y-101.3
X112.49Y-106.38
T10
X185.02Y-70.455
X118.98Y-115.54
X185.02Y-112.365
X118.98Y-67.28
T0
M30
