M48
;DRILL file {KiCad 5.0.1-33cea8e~68~ubuntu16.04.1} date Sun 25 Nov 2018 11:30:32 AM CST
;FORMAT={-:-/ absolute / metric / decimal}
FMAT,2
METRIC,TZ
T1C0.300
T2C0.650
T3C0.750
T4C0.800
T5C1.000
T6C1.100
T7C1.300
T8C1.350
T9C1.500
T10C3.200
%
G90
G05
M71
T1
X107.75Y-103.8
X121.15Y-131.75
X123.4Y-130.85
X125.6Y-130.8
X128.436Y-75.959
X128.436Y-80.659
X129.85Y-129.85
X130.636Y-79.859
X133.98Y-85.36
X134.04Y-79.3
X134.45Y-76.69
X134.57Y-86.67
X136.8Y-88.61
X136.98Y-84.71
X137.05Y-79.87
X137.41Y-86.01
X137.709Y-77.978
X137.84Y-81.23
X138.4Y-78.67
X138.98Y-80.58
X139.139Y-77.975
X139.63Y-82.11
X140.38Y-87.95
X140.5Y-86.01
X140.51Y-79.31
X140.536Y-77.33
X141.26Y-110.23
X142.85Y-86.256
X142.86Y-89.13
X142.94Y-82.28
X143.32Y-87.06
X143.51Y-110.24
X150.436Y-75.959
X150.436Y-80.25
X152.623Y-79.806
X155.94Y-81.21
X156.25Y-87.31
X156.536Y-79.284
X156.6Y-85.4
X158.2Y-132.65
X158.8Y-84.75
X158.8Y-86.06
X159.Y-81.23
X159.033Y-76.643
X159.25Y-134.5
X159.55Y-86.78
X159.625Y-105.562
X159.836Y-77.959
X160.289Y-88.5
X160.35Y-136.5
X161.578Y-87.503
X161.66Y-77.97
X161.8Y-100.7
X161.8Y-96.75
X161.8Y-98.05
X161.8Y-99.35
X161.8Y-102.
X161.8Y-102.948
X162.21Y-78.64
X162.45Y-87.98
X162.55Y-79.94
X162.56Y-81.24
X163.75Y-100.
X163.8Y-97.4
X163.8Y-98.7
X163.8Y-101.3
X163.8Y-103.9
X164.7Y-88.6
X164.75Y-105.3
X164.75Y-109.65
X164.8Y-79.29
X164.82Y-80.59
X165.1Y-77.64
X165.3Y-86.13
X165.45Y-108.
X166.3Y-108.
X166.35Y-84.1
X166.35Y-85.4
X167.Y-139.15
X167.29Y-98.51
X167.295Y-99.326
X167.3Y-97.6
X167.6Y-103.3
X169.5Y-100.6
X169.5Y-104.6
X169.57Y-99.725
X169.6Y-102.605
X170.89Y-102.95
X170.9Y-129.65
X172.25Y-70.1
X172.95Y-141.85
X173.Y-105.4
X173.5Y-139.05
X174.Y-130.85
X174.Y-132.75
X176.55Y-57.7
X177.75Y-83.32
X178.4Y-134.45
X178.85Y-141.8
X179.15Y-135.75
X179.15Y-139.85
X180.43Y-83.34
X181.5Y-137.05
X182.35Y-142.9
X183.14Y-83.34
X183.3Y-139.15
X184.2Y-131.
X184.2Y-134.45
X185.87Y-83.22
X186.1Y-138.5
X186.2Y-142.7
X187.Y-135.75
X188.2Y-138.5
X188.83Y-83.29
T2
X189.5Y-130.7
X189.5Y-131.97
X157.45Y-100.13
X157.45Y-101.4
X158.7Y-139.9
X158.7Y-141.17
X157.45Y-93.8
X157.45Y-95.07
X167.1Y-126.6
X167.1Y-127.87
X145.25Y-100.92
X145.25Y-102.19
X139.49Y-100.94
X139.49Y-102.21
X189.4Y-125.5
X189.4Y-126.77
X112.3Y-116.5
X112.3Y-117.77
X112.3Y-110.9
X112.3Y-112.17
X162.9Y-139.9
X162.9Y-141.17
X189.5Y-136.
X189.5Y-137.27
T3
X109.86Y-103.33
X125.45Y-133.005
X132.836Y-75.559
X141.136Y-74.259
X144.636Y-80.259
X152.37Y-106.51
X154.836Y-75.559
X163.036Y-74.359
X164.Y-135.4
X166.8Y-142.3
X168.07Y-78.73
X170.9Y-134.
X172.Y-139.15
X177.1Y-134.
X177.2Y-142.3
X179.1Y-98.64
X190.44Y-90.81
T4
X132.7Y-122.5
X132.7Y-126.
X176.2Y-121.3
X176.2Y-124.8
X125.4Y-121.12
X125.4Y-123.66
X125.4Y-126.2
T5
X110.6Y-127.9
X110.61Y-122.82
X149.Y-53.25
X151.54Y-53.25
X154.08Y-53.25
X156.62Y-53.25
X159.16Y-53.25
X161.7Y-53.25
X146.96Y-111.095
X149.5Y-111.095
X152.04Y-111.095
X154.58Y-111.095
X157.12Y-111.095
X159.66Y-111.095
X166.45Y-53.25
X168.99Y-53.25
X171.53Y-53.25
X174.07Y-53.25
X176.61Y-53.25
X179.15Y-53.25
X124.06Y-66.01
X124.06Y-68.55
X126.6Y-66.01
X126.6Y-68.55
X129.14Y-66.01
X129.14Y-68.55
X131.68Y-66.01
X131.68Y-68.55
X134.22Y-66.01
X134.22Y-68.55
X136.76Y-66.01
X136.76Y-68.55
X139.3Y-66.01
X139.3Y-68.55
X141.84Y-66.01
X141.84Y-68.55
X144.38Y-66.01
X144.38Y-68.55
X146.92Y-66.01
X146.92Y-68.55
X149.46Y-66.01
X149.46Y-68.55
X152.Y-66.01
X152.Y-68.55
X154.54Y-66.01
X154.54Y-68.55
X157.08Y-66.01
X157.08Y-68.55
X159.62Y-66.01
X159.62Y-68.55
X162.16Y-66.01
X162.16Y-68.55
X164.7Y-66.01
X164.7Y-68.55
X167.24Y-66.01
X167.24Y-68.55
X169.78Y-66.01
X169.78Y-68.55
X172.32Y-66.01
X172.32Y-68.55
X174.86Y-66.01
X174.86Y-68.55
X177.4Y-66.01
X177.4Y-68.55
X179.94Y-66.01
X179.94Y-68.55
X124.06Y-114.27
X124.06Y-116.81
X126.6Y-114.27
X126.6Y-116.81
X129.14Y-114.27
X129.14Y-116.81
X131.68Y-114.27
X131.68Y-116.81
X134.22Y-114.27
X134.22Y-116.81
X136.76Y-114.27
X136.76Y-116.81
X139.3Y-114.27
X139.3Y-116.81
X141.84Y-114.27
X141.84Y-116.81
X144.38Y-114.27
X144.38Y-116.81
X146.92Y-114.27
X146.92Y-116.81
X149.46Y-114.27
X149.46Y-116.81
X152.Y-114.27
X152.Y-116.81
X154.54Y-114.27
X154.54Y-116.81
X157.08Y-114.27
X157.08Y-116.81
X159.62Y-114.27
X159.62Y-116.81
X162.16Y-114.27
X162.16Y-116.81
X164.7Y-114.27
X164.7Y-116.81
X167.24Y-114.27
X167.24Y-116.81
X169.78Y-114.27
X169.78Y-116.81
X172.32Y-114.27
X172.32Y-116.81
X174.86Y-114.27
X174.86Y-116.81
X177.4Y-114.27
X177.4Y-116.81
X179.94Y-114.27
X179.94Y-116.81
T6
X146.2Y-135.5
X146.2Y-138.04
X146.2Y-140.58
X118.Y-101.3
X118.Y-107.8
X122.5Y-101.3
X122.5Y-107.8
X152.4Y-135.5
X152.4Y-140.58
X119.6Y-123.02
X119.6Y-125.56
X119.6Y-128.1
X129.85Y-101.3
X129.85Y-107.8
X134.35Y-101.3
X134.35Y-107.8
T7
X135.4Y-138.9
X140.48Y-138.9
X108.82Y-138.9
X113.9Y-138.9
X118.98Y-138.9
X124.06Y-138.9
T8
X128.25Y-50.4
X128.25Y-59.75
X131.75Y-50.4
X131.75Y-59.75
X135.25Y-50.4
X135.25Y-59.75
X138.75Y-50.4
X138.75Y-59.75
X142.25Y-50.4
X142.25Y-59.75
T9
X108.4Y-112.1
X122.6Y-134.58
X146.6Y-120.97
X146.6Y-127.32
X146.6Y-130.5
X162.48Y-120.97
X162.48Y-130.5
T10
X118.98Y-48.
X185.Y-48.
X118.98Y-67.28
X118.98Y-115.54
X185.02Y-112.365
X185.02Y-70.455
T0
M30
